<svg id="Layer_1" data-name="Layer 1" xmlns="http://www.w3.org/2000/svg" viewBox="0 0 32 32"><defs><style>.cls-1{fill:#1a1a1a;}.cls-2{fill:#424242;}.cls-3{fill:none;stroke:#2ea8e4;stroke-linecap:square;stroke-linejoin:bevel;stroke-width:1.7px;}</style></defs><title>1</title><path class="cls-1" d="M11.24,21h-.06v-.19A.39.39,0,0,0,11.24,21Z"/><path class="cls-2" d="M20.11,10.85a3.33,3.33,0,0,0-.73-.32,8,8,0,0,0-1.54-.32,15,15,0,0,0-2-.12,13.39,13.39,0,0,0-3.16.34,3.75,3.75,0,0,0-1,.39,1.39,1.39,0,0,0-.35.29.74.74,0,0,0-.16.44v9.12a.74.74,0,0,0,.16.44,1.87,1.87,0,0,0,.3.26,3.45,3.45,0,0,0,.72.32,8.26,8.26,0,0,0,1.55.32,15,15,0,0,0,2,.12A12.77,12.77,0,0,0,19,21.79a3.7,3.7,0,0,0,1-.39,1.19,1.19,0,0,0,.34-.29.69.69,0,0,0,.17-.44V11.55a.69.69,0,0,0-.17-.44,1.45,1.45,0,0,0-.29-.26Zm-8.18.65a1.43,1.43,0,0,1,.49-.26,7.27,7.27,0,0,1,1.46-.33,15,15,0,0,1,2-.13,12.18,12.18,0,0,1,3,.32,3.33,3.33,0,0,1,.84.31.47.47,0,0,1,.16.13h0l-.05.06a2,2,0,0,1-.5.26,7.15,7.15,0,0,1-1.45.33,15,15,0,0,1-2,.13,12.66,12.66,0,0,1-3-.32,3.14,3.14,0,0,1-.84-.32.71.71,0,0,1-.17-.13h0a.23.23,0,0,1,0-.05Z"/><path class="cls-3" d="M8.72,24.78c-1.29,0-2.59,0-2.48-3.27.14-3.94.26-4.74-1.65-5.76,1.91-1,1.68-1.27,1.64-5.06C6.19,7.83,7.52,7,8.59,7"/><path class="cls-3" d="M23.28,25c1.29,0,2.59,0,2.48-3.27C25.62,17.79,25.5,17,27.41,16c-1.91-1-1.68-1.27-1.64-5.06,0-2.86-1.29-3.69-2.36-3.69"/></svg>